Coordinates
version=1
nRows=9
nColumns=24
inDegrees=yes

Units are S.I. units (second, meters, Newtons, ...)
Angles are in degrees.

endheader
time	pelvis_tilt	pelvis_list	pelvis_rotation	pelvis_tx	pelvis_ty	pelvis_tz	hip_flexion_r	hip_adduction_r	hip_rotation_r	knee_angle_r	ankle_angle_r	subtalar_angle_r	mtp_angle_r	hip_flexion_l	hip_adduction_l	hip_rotation_l	knee_angle_l	ankle_angle_l	subtalar_angle_l	mtp_angle_l	lumbar_extension	lumbar_bending	lumbar_rotation
      1.15850000	      4.50520350	      9.06244837	     -5.32494555	      0.12459303	      1.01967837	      0.27145535	     11.34407322	    -10.15999745	      0.39693137	    -65.90063490	      7.05479206	    -18.80941048	     -7.37063624	      7.88002716	     12.18511497	     -2.51646603	    -14.14219289	      0.42552412	    -15.58008690	      2.43756315	    -10.76167804	    -11.37286320	      6.32376964
      1.16266667	      4.47189119	      8.94312284	     -5.29114955	      0.12976088	      1.02056895	      0.27123715	     11.83278181	     -9.89871319	      0.49624545	    -65.35979981	      7.32708309	    -18.88251084	     -7.40346962	      7.43437141	     12.11813374	     -2.39605392	    -13.88654289	      0.56203892	    -15.58958080	      2.41733158	    -10.76208835	    -11.23135370	      6.22536605
      1.16683333	      4.44568798	      8.81052637	     -5.21949678	      0.13488879	      1.02149070	      0.27099385	     12.28162119	     -9.62287927	      0.56467929	    -64.73182402	      7.51256326	    -18.93952489	     -7.50089945	      6.96703289	     12.05009271	     -2.14432926	    -13.61016462	      0.67452824	    -15.69798253	      2.34843261	    -10.81474208	    -11.08547463	      5.97015576
      1.17100000	      4.39014699	      8.68526335	     -5.17340345	      0.14004738	      1.02232723	      0.27081129	     12.75746137	     -9.34458092	      0.66672942	    -64.05173325	      7.75370830	    -18.95785839	     -7.52972915	      6.54195886	     11.96721952	     -2.02251111	    -13.34712458	      0.78343347	    -15.69451403	      2.32319711	    -10.80196003	    -10.94433637	      5.87669251
      1.17516667	      4.36831614	      8.55522347	     -5.08870566	      0.14518201	      1.02319656	      0.27058395	     13.16363691	     -9.07553771	      0.72135197	    -63.29341169	      7.90533913	    -18.97323480	     -7.60462196	      6.06703802	     11.89403507	     -1.78042305	    -13.06518574	      0.90437263	    -15.77108275	      2.25108624	    -10.85207284	    -10.80171042	      5.62809153
      1.17933333	      4.31929479	      8.42880331	     -5.02470071	      0.15033153	      1.02398850	      0.27041569	     13.59188080	     -8.79868440	      0.80843967	    -62.48365243	      8.09753344	    -18.95268028	     -7.63285580	      5.63232305	     11.80510934	     -1.64819842	    -12.79638017	      0.99486982	    -15.76653382	      2.21695601	    -10.85253075	    -10.66354137	      5.51189420
      1.18350000	      4.27845512	      8.30549698	     -4.93978235	      0.15548214	      1.02476424	      0.27021335	     13.98774842	     -8.53770075	      0.86646892	    -61.61217182	      8.23735013	    -18.92925840	     -7.66326507	      5.17938888	     11.72481192	     -1.46238163	    -12.51164081	      1.10228352	    -15.78193949	      2.17599972	    -10.87151236	    -10.52052032	      5.33623670
      1.18766667	      4.26521767	      8.19115195	     -4.84751818	      0.16061380	      1.02552990	      0.27001813	     14.33892535	     -8.29285710	      0.91705958	    -60.69102551	      8.32926767	    -18.93701091	     -7.72649399	      4.68426664	     11.65956464	     -1.22176682	    -12.19839914	      1.20341481	    -15.85172101	      2.07928020	    -10.93312813	    -10.39599765	      5.02530055
      1.19183333	      4.19988713	      8.08245712	     -4.76098836	      0.16577707	      1.02617686	      0.26985119	     14.73416619	     -8.04867200	      0.98101276	    -59.72344373	      8.43939041	    -18.87198027	     -7.74607769	      4.26383801	     11.58110333	     -1.08250403	    -11.91948097	      1.29750065	    -15.83259078	      2.04216300	    -10.90890743	    -10.26841798	      4.90915499
